<?xml version="1.0" encoding="UTF-8" standalone="no" ?>
<!DOCTYPE svg PUBLIC "-//W3C//DTD SVG 1.1//EN" "http://www.w3.org/Graphics/SVG/1.1/DTD/svg11.dtd">
<svg xmlns="http://www.w3.org/2000/svg" xmlns:xlink="http://www.w3.org/1999/xlink" version="1.1" width="500" height="500" viewBox="0 0 500 500" xml:space="preserve">
<desc>Created with Fabric.js 4.6.0</desc>
<defs>
</defs>
<g transform="matrix(1 0 0 1 250 250)" id="EQ8zb478_U7EYch12iV6P"  >
<g style="" vector-effect="non-scaling-stroke"   >
		<g transform="matrix(3.5 0 0 3.5 -140.01 0.27)" id="5cbHTnOdGLIJl35P0uy-0"  >
<path style="stroke: rgb(0,0,0); stroke-width: 1; stroke-dasharray: none; stroke-linecap: butt; stroke-dashoffset: 0; stroke-linejoin: miter; stroke-miterlimit: 4; fill: rgb(0,0,0); fill-rule: nonzero; opacity: 1;" vector-effect="non-scaling-stroke"  transform=" translate(0, 0)" d="M -16.55232 -23.58491 L -8.147520000000002 -21.35506 L -8.147520000000002 17.926029999999997 L -15.180110000000003 23.413379999999997 L -15.180110000000003 29.245279999999998 L 13.121779999999998 29.245279999999998 L 16.55231 22.555739999999997 L 8.147509999999999 20.497419999999998 L 8.147509999999999 -17.409960000000005 L 14.837049999999998 -23.584920000000004 L 14.837049999999998 -29.245300000000004 L -13.636360000000003 -29.245300000000004 z" stroke-linecap="round" />
</g>
		<g transform="matrix(3.5 0 0 3.5 -35.38 -0.33)" id="LYR-BCLR-WuI4tfjYXxKD"  >
<path style="stroke: rgb(0,0,0); stroke-width: 1; stroke-dasharray: none; stroke-linecap: butt; stroke-dashoffset: 0; stroke-linejoin: miter; stroke-miterlimit: 4; fill: rgb(0,0,0); fill-rule: nonzero; opacity: 1;" vector-effect="non-scaling-stroke"  transform=" translate(0, 0)" d="M -19.72556 0.17153 L 0.3430499999999981 -18.4391 L -7.547170000000002 -23.41337 L -5.145800000000002 -28.73069 L 18.696399999999997 -28.73069 L 18.696399999999997 -24.61405 L -5.145800000000001 -4.71697 L 11.835329999999999 19.46828 L 19.72555 23.24186 L 16.981119999999997 28.73071 L 0.34303999999999846 28.73071 z" stroke-linecap="round" />
</g>
		<g transform="matrix(-3.5 0 0 3.5 60.26 -0.33)" id="W_1WoD2LDIHCvJVNDfLkm"  >
<path style="stroke: rgb(203,35,132); stroke-width: 1; stroke-dasharray: none; stroke-linecap: butt; stroke-dashoffset: 0; stroke-linejoin: miter; stroke-miterlimit: 4; fill: rgb(203,35,132); fill-rule: nonzero; opacity: 1;" vector-effect="non-scaling-stroke"  transform=" translate(0, 0)" d="M -3.00172 -29.2307 L 3.0017099999999997 -29.2307 L 3.0017099999999997 29.230710000000002 L -3.00172 29.230710000000002 z" stroke-linecap="round" />
</g>
		<g transform="matrix(3.5 0 0 3.5 142.11 -26.38)" id="gfsglMXCy2T-iELcOuXjD"  >
<path style="stroke: rgb(0,0,0); stroke-width: 1; stroke-dasharray: none; stroke-linecap: butt; stroke-dashoffset: 0; stroke-linejoin: miter; stroke-miterlimit: 4; fill: rgb(0,0,0); fill-rule: nonzero; opacity: 1;" vector-effect="non-scaling-stroke"  transform=" translate(0, 0)" d="M -7.7187 -13.55789 L -7.7187 10.62736 L -14.57976 16.11621 L -14.57976 21.77659 L 12.86449 21.77659 L 15.95197 16.11621 L 7.718689999999999 13.200259999999998 L 7.718689999999999 -10.984990000000002 L 14.751279999999998 -16.64537 L 14.751279999999998 -21.77659 L -13.036030000000004 -21.77659 L -15.951980000000004 -16.64537 z" stroke-linecap="round" />
</g>
</g>
</g>
</svg>